<?xml version="1.0" encoding="utf-8"?><svg viewBox="0 0 33 29" xmlns="http://www.w3.org/2000/svg" xmlns:xlink="http://www.w3.org/1999/xlink"><style>:root>svg{display:none}:root>svg:target{display:block}</style><svg viewBox="0 0 33 29" id="burger-icon" xmlns="http://www.w3.org/2000/svg"><path data-name="Shape 1 copy 2" d="M962 60v-3h33v3h-33Zm0 13v-3h33v3h-33Zm0 13v-3h33v3h-33Z" transform="translate(-962 -57)" style="fill:#262f32;fill-rule:evenodd;opacity:.9"/></svg><svg fill="none" viewBox="0 0 25 25" id="dribbble-icon" xmlns="http://www.w3.org/2000/svg"><g clip-path="url(#ba)"><path d="M12.49.65c6.612 0 11.978 5.356 11.983 11.972A11.964 11.964 0 0 1 12.47 24.62C5.85 24.614.498 19.258.503 12.642.503 6.01 5.859.654 12.49.649ZM6.182 20.678c.048.053.063.073.083.088.029.024.063.048.097.073 1.758 1.299 3.73 1.982 5.918 2.031 1.377.034 2.7-.22 3.98-.713.166-.063.23-.146.185-.327-.068-.278-.107-.557-.166-.835a43.812 43.812 0 0 0-1.518-5.44c-.147-.42-.303-.834-.464-1.279-3.438 1.246-6.25 3.208-8.115 6.402ZM2.295 12.26c-.38 1.938 1.235 6.338 2.583 7.158 2.143-3.242 4.927-5.66 8.73-6.846-.268-.552-.522-1.084-.79-1.606-.025-.054-.181-.073-.26-.054-.512.122-1.02.274-1.533.396a35.497 35.497 0 0 1-6.796.947c-.645.03-1.29.005-1.934.005Zm.22-1.768c1.152.278 8.496-.708 9.38-1.264a62.578 62.578 0 0 0-3.765-5.84C5.02 4.76 2.886 7.954 2.515 10.493Zm16.718-5.552C17.72 3.628 15.977 2.808 13.99 2.51a10.277 10.277 0 0 0-3.91.176 54.366 54.366 0 0 1 3.817 5.957c2.022-.674 4.41-2.266 5.337-3.702Zm3.492 7.564c-.05-2.388-.82-4.492-2.32-6.367-.757.947-1.636 1.709-2.602 2.378-.972.669-2.012 1.206-3.091 1.665.283.644.552 1.26.835 1.87.03.063.146.132.21.127 1.7-.19 3.393-.142 5.088.058.61.079 1.216.176 1.88.269Zm-4.522 8.584c1.856-.81 4.292-4.62 4.375-6.836-2.075-.61-4.184-.737-6.362-.444.854 2.397 1.538 4.81 1.987 7.28Z" fill="#fff"/></g><defs><clipPath id="ba"><path fill="#fff" d="M0 0h25v25H0z"/></clipPath></defs></svg><svg fill="none" viewBox="0 0 25 25" id="facebook-icon" xmlns="http://www.w3.org/2000/svg"><g clip-path="url(#ca)"><path d="M6.64 8.382h2.513V5.939c0-1.076.026-2.737.81-3.769.821-1.088 1.951-1.828 3.895-1.828 3.168 0 4.501.453 4.501.453l-.628 3.723s-1.045-.303-2.021-.303c-.977 0-1.852.35-1.852 1.327v2.84h4.005l-.279 3.637h-3.726v12.64H9.153v-12.64H6.641V8.382Z" stroke="#fff" stroke-width=".8"/></g><defs><clipPath id="ca"><path fill="#fff" d="M0 0h25v25H0z"/></clipPath></defs></svg><svg fill="none" viewBox="0 0 24 24" id="twitter-icon" xmlns="http://www.w3.org/2000/svg"><g clip-path="url(#da)"><path d="M8.51 20h-.08a10.87 10.87 0 0 1-4.65-1.09A1.38 1.38 0 0 1 3 17.47a1.41 1.41 0 0 1 1.16-1.18 6.63 6.63 0 0 0 2.54-.89 9.49 9.49 0 0 1-3.51-9.07 1.41 1.41 0 0 1 1-1.15 1.35 1.35 0 0 1 1.43.41 7.09 7.09 0 0 0 4.88 2.75 4.5 4.5 0 0 1 1.41-3.1 4.47 4.47 0 0 1 6.37.19.7.7 0 0 0 .78.1A1.39 1.39 0 0 1 21 7.13a6.661 6.661 0 0 1-1.28 2.6A10.79 10.79 0 0 1 8.51 20Zm0-2h.08a8.79 8.79 0 0 0 9.09-8.59 1.32 1.32 0 0 1 .37-.85 5.19 5.19 0 0 0 .62-1 2.56 2.56 0 0 1-1.91-.85A2.45 2.45 0 0 0 15 6a2.5 2.5 0 0 0-1.79.69 2.53 2.53 0 0 0-.72 2.42l.26 1.14-1.17.08a8.3 8.3 0 0 1-6.54-2.4 7.12 7.12 0 0 0 3.73 6.46l.95.54-.63.9a5.62 5.62 0 0 1-2.68 1.92A8.337 8.337 0 0 0 8.5 18h.01Z" fill="#fff"/></g><defs><clipPath id="da"><path fill="#fff" d="M0 0h24v24H0z"/></clipPath></defs></svg></svg>