<svg width="25" height="25" viewBox="0 0 25 25" fill="none" xmlns="http://www.w3.org/2000/svg">
<g clip-path="url(#clip0_655_16)">
<path d="M12.4902 0.649414C19.1016 0.649414 24.4678 6.00586 24.4727 12.6221C24.4775 19.2725 19.1211 24.624 12.4707 24.6191C5.84961 24.6143 0.49805 19.2578 0.502933 12.6416C0.502933 6.01074 5.85938 0.654297 12.4902 0.649414ZM6.18164 20.6787C6.23047 20.7324 6.24512 20.752 6.26465 20.7666C6.29395 20.791 6.32813 20.8154 6.36231 20.8398C8.12012 22.1387 10.0928 22.8223 12.2803 22.8711C13.6572 22.9053 14.9805 22.6514 16.2598 22.1582C16.4258 22.0947 16.4893 22.0117 16.4453 21.8311C16.377 21.5527 16.3379 21.2744 16.2793 20.9961C15.8936 19.1504 15.3809 17.3389 14.7607 15.5566C14.6143 15.1367 14.458 14.7217 14.2969 14.2773C10.8594 15.5225 8.04688 17.4854 6.18164 20.6787ZM2.29493 12.2607C1.91407 14.1992 3.53028 18.5986 4.87793 19.4189C7.02149 16.1768 9.80469 13.7598 13.6084 12.5732C13.3398 12.0215 13.0859 11.4893 12.8174 10.9668C12.793 10.9131 12.6367 10.8936 12.5586 10.9131C12.0459 11.0352 11.5381 11.1865 11.0254 11.3086C8.78907 11.8408 6.52344 12.1631 4.22852 12.2559C3.58399 12.2852 2.93946 12.2607 2.29493 12.2607ZM2.51465 10.4932C3.667 10.7715 11.0107 9.78516 11.8945 9.22852C10.7471 7.21191 9.49219 5.26367 8.12989 3.38867C5.01953 4.76074 2.88575 7.9541 2.51465 10.4932ZM19.2334 4.94141C17.7197 3.62793 15.9766 2.80762 13.9893 2.50977C12.6856 2.31934 11.3965 2.37305 10.0781 2.68555C11.5039 4.61914 12.7637 6.59668 13.8965 8.64258C15.918 7.96875 18.3057 6.37695 19.2334 4.94141ZM22.7246 12.5049C22.6758 10.1172 21.9043 8.0127 20.4053 6.1377C19.6484 7.08496 18.7695 7.84668 17.8027 8.51562C16.8311 9.18457 15.791 9.72168 14.7119 10.1807C14.9951 10.8252 15.2637 11.4404 15.5469 12.0508C15.5762 12.1143 15.6934 12.1826 15.7568 12.1777C17.4561 11.9873 19.1504 12.0361 20.8447 12.2363C21.4551 12.3145 22.0606 12.4121 22.7246 12.5049ZM18.2031 21.0889C20.0586 20.2783 22.4951 16.4697 22.5781 14.2529C20.5029 13.6426 18.3936 13.5156 16.2158 13.8086C17.0703 16.2061 17.7539 18.6182 18.2031 21.0889Z" fill="white"/>
</g>
<defs>
<clipPath id="clip0_655_16">
<rect width="25" height="25" fill="white"/>
</clipPath>
</defs>
</svg>
